<svg id="Capa_1" enable-background="new 0 0 512 512" height="512" viewBox="0 0 512 512" width="512" xmlns="http://www.w3.org/2000/svg"><g><path d="m86.294 85.294 91.924 91.924c19.906-19.906 47.406-32.218 77.782-32.218v-130c-66.274 0-126.274 26.863-169.706 70.294z" fill="#fff36c"/><path d="m16 255h130c0-30.376 12.312-57.876 32.218-77.782l-91.924-91.924c-43.431 43.432-70.294 103.432-70.294 169.706z" fill="#ff6379"/><path d="m256 15v130c30.376 0 57.876 12.312 77.782 32.218l91.924-91.924c-43.432-43.431-103.432-70.294-169.706-70.294z" fill="#70da40"/><path d="m425.706 85.294-91.924 91.924c19.906 19.906 32.218 47.406 32.218 77.782h130c0-66.274-26.863-126.274-70.294-169.706z" fill="#6aa9ff"/><g><g><g><path d="m365.186 512h-218.372c-16.087 0-30.573-8.271-38.751-22.123s-8.42-30.531-.649-44.616l109.185-197.898c8.036-14.565 22.766-23.262 39.401-23.262s31.365 8.696 39.401 23.262l109.185 197.898c7.771 14.084 7.528 30.763-.649 44.615s-22.665 22.124-38.751 22.124z" fill="#8989a5"/><path d="m403.937 489.877c8.178-13.853 8.42-30.531.649-44.615l-109.185-197.899c-8.036-14.565-22.766-23.262-39.401-23.262v287.899h109.186c16.086 0 30.573-8.271 38.751-22.123z" fill="#616173"/><path d="m256 254.102c-2.663 0-9.272.756-13.134 7.754l-109.184 197.898c-3.734 6.767-1.093 12.655.216 14.872 1.31 2.217 5.188 7.375 12.917 7.375h218.371c7.729 0 11.607-5.157 12.917-7.375 1.309-2.217 3.95-8.104.216-14.871l-109.185-197.9c-3.862-6.998-10.471-7.753-13.134-7.753z" fill="#fff36c"/><path d="m365.186 482c7.729 0 11.607-5.157 12.917-7.375 1.309-2.217 3.95-8.104.216-14.871l-109.185-197.899c-3.861-6.998-10.471-7.754-13.134-7.754v227.899z" fill="#ffda44"/><g><g><g><g><path d="m256 402c-8.284 0-15-6.716-15-15v-65c0-8.284 6.716-15 15-15s15 6.716 15 15v65c0 8.284-6.716 15-15 15z" fill="#8989a5"/></g></g></g></g><path d="m271 387v-65c0-8.284-6.716-15-15-15v95c8.284 0 15-6.716 15-15z" fill="#616173"/></g><path d="m436.312 74.688c-48.164-48.164-112.199-74.688-180.312-74.688s-132.148 26.524-180.312 74.688c-48.164 48.163-74.688 112.199-74.688 180.312 0 8.284 6.716 15 15 15h130c8.284 0 15-6.716 15-15 0-52.383 42.617-95 95-95s95 42.617 95 95c0 8.284 6.716 15 15 15h130c8.284 0 15-6.716 15-15 0-68.113-26.524-132.149-74.688-180.312zm-304.417 165.312h-100.4c3.36-50.769 23.644-96.983 55.236-133.057l70.949 70.949c-13.79 17.544-22.993 38.854-25.785 62.108zm46.999-83.319-70.949-70.948c36.073-31.593 82.286-51.866 133.055-55.225v100.389c-23.253 2.794-44.562 11.996-62.106 25.784zm92.106-25.783v-100.39c50.769 3.359 96.982 23.632 133.055 55.224l-70.949 70.948c-17.544-13.787-38.853-22.989-62.106-25.782zm109.105 109.102c-2.792-23.254-11.996-44.564-25.785-62.108l70.949-70.949c31.592 36.074 51.876 82.288 55.236 133.057z" fill="#fff5f5"/><path d="m351 255c0 8.284 6.716 15 15 15h130c8.284 0 15-6.716 15-15 0-68.113-26.524-132.149-74.688-180.312-48.164-48.164-112.199-74.688-180.312-74.688v160c52.383 0 95 42.617 95 95zm129.506-15h-100.4c-2.792-23.254-11.996-44.564-25.785-62.108l70.949-70.949c31.592 36.074 51.876 82.288 55.236 133.057zm-209.506-209.492c50.769 3.359 96.982 23.632 133.055 55.224l-70.949 70.948c-17.544-13.788-38.853-22.99-62.106-25.783z" fill="#beebfa"/></g><g><path d="m271 437c0 8.284-6.716 15-15 15s-15-6.716-15-15 6.716-15 15-15 15 6.716 15 15z" fill="#8989a5"/></g><path d="m256 422v30c8.284 0 15-6.716 15-15s-6.716-15-15-15z" fill="#616173"/></g></g></svg>